<?xml version="1.0" encoding="UTF-8"?>
<svg width="762px" height="355px" viewBox="0 0 762 355" version="1.1" xmlns="http://www.w3.org/2000/svg" xmlns:xlink="http://www.w3.org/1999/xlink">
    <title>646B4B12-CAE8-49AE-962A-EBD8CE33CEB0</title>
    <g id="visual" stroke="none" stroke-width="1" fill="none" fill-rule="evenodd">
        <g id="title" transform="translate(-498.000000, -107.000000)" fill="#113E3B">
            <g transform="translate(457.000000, 35.000000)">
                <g transform="translate(41.000000, 72.000000)">
                    <path d="M36.1045,141.8145 C32.1595,141.6275 25.0205,141.4395 18.6325,141.4395 C11.6815,141.4395 6.4215,141.6275 2.2895,141.8145 L2.2895,140.8755 C9.2405,139.7485 11.6815,138.8085 11.6815,123.7795 L11.6815,22.8955 C11.6815,7.8665 8.6755,7.1155 0.4105,5.7995 L0.4105,4.8605 C4.1675,5.0475 10.9305,5.2365 24.4575,5.2365 C53.2005,5.2365 68.2295,5.2365 76.6835,4.8605 C76.6835,6.1755 76.8715,9.7445 76.8715,12.7505 C76.8715,16.8835 76.6835,24.2105 75.7445,28.1565 L74.8045,28.1565 C74.8045,11.4355 68.9805,10.8725 41.3655,10.8725 C30.8435,10.8725 28.4025,11.2485 25.5835,11.9995 L25.5835,67.0435 C59.9625,67.0435 62.4065,67.0435 64.2845,50.3245 L65.2235,50.3245 C65.0365,56.1475 64.8475,62.3475 64.8475,70.0495 C64.8475,80.0065 65.0365,81.3225 65.2235,87.7095 L64.2845,87.7095 C62.4065,73.0555 59.7755,72.6795 25.5835,72.6795 L25.5835,123.7795 C25.5835,138.8085 28.7775,139.7485 36.1045,140.8755 L36.1045,141.8145 Z" id="Fill-2"></path>
                    <path d="M159.1562,117.2041 C158.9692,132.9841 158.0292,133.7361 158.0292,142.0021 C140.5582,141.4391 136.8012,141.4391 119.3292,141.4391 C105.0512,141.4391 85.5132,141.6271 81.5682,141.8141 L81.5682,140.8751 C90.5862,139.3731 92.2762,136.5551 92.2762,123.7791 L92.2762,22.8951 C92.2762,7.8661 89.8342,6.9271 82.8832,5.8001 L82.8832,4.8601 C87.0152,5.0481 92.2762,5.2361 99.2272,5.2361 C105.6152,5.2361 111.6272,5.0481 115.5722,4.8601 L115.5722,5.8001 C108.6212,6.9271 106.1782,7.8661 106.1782,22.8951 L106.1782,134.6761 C108.2452,135.4281 113.3172,135.8031 122.1472,135.8031 C151.4542,135.8031 155.3992,135.8031 158.2182,117.2041 L159.1562,117.2041 Z" id="Fill-4"></path>
                    <path d="M271.5,75.1221 C271.5,27.5921 245.763,8.0541 220.4,8.0541 C195.414,8.0541 170.616,27.0281 170.616,73.9951 C170.616,119.2701 192.973,138.9961 220.4,138.9961 C248.769,138.9961 271.5,118.5191 271.5,75.1221 M153.145,74.5591 C153.145,39.0521 179.258,3.9211 221.904,3.9211 C258.726,3.9211 288.784,33.7911 288.784,73.9951 C288.784,112.3201 259.477,143.3171 220.4,143.3171 C178.694,143.3171 153.145,109.1261 153.145,74.5591" id="Fill-6"></path>
                    <path d="M328.0508,28.1563 L307.5728,83.5763 C313.5848,83.7633 319.4078,83.7633 325.4198,83.7633 L345.3338,83.7633 L328.0508,28.1563 Z M385.1618,141.8143 C381.2168,141.6273 375.2048,141.4393 368.8178,141.4393 C361.8658,141.4393 356.2308,141.6273 352.0978,141.8143 L352.0978,140.8753 C358.2968,140.5003 360.3638,137.8693 360.3638,134.3003 C360.3638,131.6703 359.2368,128.2883 358.1098,124.5313 L347.0258,89.2123 L325.4198,89.2123 C318.6568,89.2123 312.0818,89.2123 305.5068,89.4003 L294.2348,119.8343 C292.5438,124.5313 291.0408,129.0403 291.0408,132.6093 C291.0408,136.9293 293.2948,140.1243 299.6828,140.8753 L299.6828,141.8143 C295.5498,141.6273 289.1618,141.4393 282.2108,141.4393 C275.8238,141.4393 273.3808,141.6273 269.4368,141.8143 L269.4368,140.8753 C279.0178,138.6213 282.0238,136.3673 290.1018,114.9493 L332.5598,2.0423 L334.4378,2.0423 L373.8898,126.7853 C377.6478,138.6213 378.0238,139.9353 385.1618,140.8753 L385.1618,141.8143 Z" id="Fill-8"></path>
                    <path d="M427.6191,141.8145 C423.6741,141.6275 417.6621,141.4395 411.2751,141.4395 C404.3241,141.4395 399.0631,141.6275 394.9311,141.8145 L394.9311,140.8755 C401.8821,139.7485 404.3241,138.8085 404.3241,123.7795 L404.3241,12.3755 C374.6401,12.3755 365.8111,12.3755 360.1761,24.3985 L359.2361,24.3985 C360.7391,16.8835 363.3691,12.5625 365.6231,0.5395 L366.5621,0.5395 C367.1271,6.5505 371.6351,6.7385 407.3301,6.7385 C449.7871,6.7385 456.9271,6.7385 462.3751,2.0425 L463.5021,2.0425 C462.1861,5.0475 458.4301,18.0105 457.6781,22.1445 L456.5511,22.1445 C456.7381,21.3925 456.9271,20.2655 456.9271,19.3265 C456.9271,13.5025 451.4781,12.3755 418.2261,12.3755 L418.2261,123.7795 C418.2261,138.8085 420.6681,139.7485 427.6191,140.8755 L427.6191,141.8145 Z" id="Fill-10"></path>
                    <path d="M496.3789,141.8145 C492.4339,141.6275 486.4219,141.4395 480.0349,141.4395 C473.0839,141.4395 467.8229,141.6275 463.6909,141.8145 L463.6909,140.8755 C470.6419,139.7485 473.0839,138.8085 473.0839,123.7795 L473.0839,22.8955 C473.0839,7.8665 470.6419,6.9265 463.6909,5.7995 L463.6909,4.8605 C467.8229,5.0475 473.0839,5.2365 480.0349,5.2365 C486.4219,5.2365 492.4339,5.0475 496.3789,4.8605 L496.3789,5.7995 C489.4279,6.9265 486.9859,7.8665 486.9859,22.8955 L486.9859,123.7795 C486.9859,138.8085 489.4279,139.7485 496.3789,140.8755 L496.3789,141.8145 Z" id="Fill-12"></path>
                    <path d="M623.1895,145.5723 L516.4825,26.8413 L516.4825,43.7483 C516.4825,137.6813 516.6695,136.5543 529.4455,140.8753 L529.4455,141.8143 C525.3115,141.6273 520.4275,141.4393 513.4765,141.4393 C507.0885,141.4393 502.5805,141.6273 498.6345,141.8143 L498.6345,140.8753 C510.6585,136.3673 510.8455,137.4943 510.8455,43.5603 L510.8455,2.0423 L512.1615,2.0423 L618.4935,120.2103 L618.4935,103.4903 C618.4935,8.4293 617.9295,9.9323 605.5315,5.8003 L605.5315,4.8603 C609.6645,5.0483 614.5485,5.2363 621.4995,5.2363 C627.8865,5.2363 633.1465,5.0483 637.0915,4.8603 L637.0915,5.8003 C624.5045,9.9323 624.1285,8.4293 624.1285,102.3633 L624.1285,145.5723 L623.1895,145.5723 Z" id="Fill-14"></path>
                    <path d="M739.1074,94.2852 C739.1074,78.5042 735.3494,78.3162 728.3984,77.1882 L728.3984,76.2502 C732.5314,76.4372 739.1074,76.6252 746.0574,76.6252 C752.4454,76.6252 757.3304,76.4372 761.2754,76.2502 L761.2754,77.1882 C754.5114,78.5042 753.0084,79.6312 753.0084,94.2852 L753.0084,131.1062 C741.1734,134.6762 730.6534,143.3172 707.5454,143.3172 C659.4514,143.3172 634.0894,109.1262 634.0894,73.9952 C634.0894,37.1742 659.6394,3.9212 705.4784,3.9212 C722.9504,3.9212 736.1014,7.8662 753.5724,13.1272 C753.1974,17.2602 753.0084,24.9622 753.0084,30.7852 C753.0084,33.9792 753.0084,36.7972 753.1974,38.1122 L752.2574,38.1122 C750.1914,17.0712 729.7134,8.0542 706.2304,8.0542 C680.3044,8.0542 650.6224,25.7132 650.6224,73.2442 C650.6224,112.6952 675.7954,139.1842 708.1094,139.1842 C718.2534,139.1842 731.4044,136.1792 739.1074,128.4762 L739.1074,94.2852 Z" id="Fill-16"></path>
                    <path d="M36.1045,290.998 C32.1595,290.811 25.0205,290.622 18.6325,290.622 C11.6815,290.622 6.4215,290.811 2.2895,290.998 L2.2895,290.059 C9.2405,288.932 11.6815,287.992 11.6815,272.963 L11.6815,172.078 C11.6815,157.049 8.6755,156.298 0.4105,154.982 L0.4105,154.043 C4.1675,154.231 10.9305,154.419 24.4575,154.419 C53.2005,154.419 68.2295,154.419 76.6835,154.043 C76.6835,155.358 76.8715,158.928 76.8715,161.934 C76.8715,166.066 76.6835,173.394 75.7445,177.339 L74.8045,177.339 C74.8045,160.619 68.9805,160.055 41.3655,160.055 C30.8435,160.055 28.4025,160.431 25.5835,161.182 L25.5835,216.227 C59.9625,216.227 62.4065,216.227 64.2845,199.507 L65.2235,199.507 C65.0365,205.331 64.8475,211.53 64.8475,219.232 C64.8475,229.189 65.0365,230.505 65.2235,236.893 L64.2845,236.893 C62.4065,222.238 59.7755,221.863 25.5835,221.863 L25.5835,272.963 C25.5835,287.992 28.7775,288.932 36.1045,290.059 L36.1045,290.998 Z" id="Fill-18"></path>
                    <path d="M190.9062,224.3047 C190.9062,176.7757 165.1682,157.2377 139.8062,157.2377 C114.8202,157.2377 90.0212,176.2107 90.0212,223.1777 C90.0212,268.4537 112.3782,288.1797 139.8062,288.1797 C168.1742,288.1797 190.9062,267.7017 190.9062,224.3047 M72.5512,223.7427 C72.5512,188.2347 98.6642,153.1037 141.3092,153.1037 C178.1312,153.1037 208.1892,182.9747 208.1892,223.1777 C208.1892,261.5027 178.8832,292.5007 139.8062,292.5007 C98.1002,292.5007 72.5512,258.3087 72.5512,223.7427" id="Fill-20"></path>
                    <path d="M238.626,225.6201 C265.679,225.6201 272.817,211.9061 272.817,194.0581 C272.817,174.1441 262.673,158.3641 243.135,158.3641 C238.814,158.3641 235.057,158.7401 229.608,160.2431 L229.608,225.6201 L238.626,225.6201 Z M300.622,291.1851 C298.932,291.3731 298.18,291.3731 295.926,291.3731 C276.575,290.6221 274.133,288.3671 252.152,246.6611 C249.898,242.5281 245.765,233.1351 241.632,229.5651 L229.608,229.5651 L229.608,272.9631 C229.608,287.9921 232.051,288.9321 239.002,290.0581 L239.002,290.9981 C235.057,290.8101 229.045,290.6221 222.657,290.6221 C215.706,290.6221 210.446,290.8101 206.313,290.9981 L206.313,290.0581 C213.264,288.9321 215.706,287.9921 215.706,272.9631 L215.706,172.0781 C215.706,159.4911 213.828,156.1091 206.689,154.9821 L206.689,154.0431 C213.076,154.4191 216.458,154.4191 224.724,154.4191 C230.359,154.4191 240.129,154.0431 244.262,154.0431 C272.817,154.0431 288.599,169.8241 288.599,191.6171 C288.599,207.3971 278.078,222.6141 255.91,227.6871 C261.922,232.3841 282.774,283.8591 300.622,290.0581 L300.622,291.1851 Z" id="Fill-22"></path>
                    <path d="M378.9629,266.3867 C378.7749,282.1677 377.8359,282.9197 377.8359,291.1857 C360.3629,290.6217 356.6069,290.6217 339.1349,290.6217 C324.8579,290.6217 305.3179,290.8107 301.3739,290.9977 L301.3739,290.0587 C310.3919,288.5557 312.0819,285.7377 312.0819,272.9627 L312.0819,172.0777 C312.0819,157.0487 309.0759,156.2977 300.8109,154.9827 L300.8109,154.0427 C304.5669,154.2317 311.3299,154.4187 324.8579,154.4187 C353.6009,154.4187 368.6299,154.4187 377.0839,154.0427 C377.0839,155.3587 377.2719,158.9277 377.2719,161.9337 C377.2719,166.0667 377.0839,173.3937 376.1449,177.3387 L375.2049,177.3387 C375.2049,160.6187 369.3809,160.0547 341.7659,160.0547 C331.2439,160.0547 328.8029,160.4307 325.9839,161.1817 L325.9839,217.1657 C360.5519,217.1657 362.4299,216.7907 365.2479,202.7007 L366.1879,202.7007 C365.9999,208.5247 365.8129,212.4697 365.8129,220.1717 C365.8129,230.1287 365.9999,232.9477 366.1879,239.3337 L365.2479,239.3337 C362.4299,223.1777 360.5519,222.8027 325.9839,222.8027 L325.9839,283.8597 C328.0509,284.6107 333.1229,284.9867 341.9529,284.9867 C371.2599,284.9867 375.2049,284.9867 378.0239,266.3867 L378.9629,266.3867 Z" id="Fill-24"></path>
                    <path d="M383.6611,259.0605 C385.9161,278.0355 395.3081,287.8045 414.6591,287.8045 C427.6221,287.8045 440.2091,279.7255 440.2091,262.4425 C440.2091,224.8695 383.8491,225.8085 383.8491,184.8535 C383.8491,164.5645 398.5031,151.2255 418.6041,151.2255 C429.5001,151.2255 436.2641,154.2315 443.5911,154.2315 C444.7181,154.2315 445.6571,154.2315 446.7841,154.0425 C446.4081,157.9885 446.2211,161.3705 446.2211,166.4425 C446.2211,169.2605 446.2211,173.9565 446.4081,176.7755 L445.2811,176.7755 C442.4631,162.1215 432.6941,155.1695 418.9801,155.1695 C407.1441,155.1695 396.0601,161.5585 396.0601,176.3995 C396.0601,212.2815 452.0451,211.3425 452.0451,254.3635 C452.0451,277.8475 434.9491,292.5005 412.9691,292.5005 C400.3811,292.5005 394.9331,288.9315 385.9161,288.9315 C384.7891,288.9315 384.2241,288.9315 383.0981,289.1195 C383.2851,288.1795 383.6611,280.2895 383.6611,278.5985 C383.6611,270.3315 383.2851,264.5085 382.7221,259.0605 L383.6611,259.0605 Z" id="Fill-26"></path>
                    <path d="M519.3018,290.998 C515.3568,290.811 509.3448,290.622 502.9568,290.622 C496.0058,290.622 490.7458,290.811 486.6138,290.998 L486.6138,290.059 C493.5648,288.932 496.0058,287.992 496.0058,272.963 L496.0058,161.559 C466.3228,161.559 457.4938,161.559 451.8578,173.582 L450.9178,173.582 C452.4208,166.066 455.0508,161.746 457.3058,149.723 L458.2448,149.723 C458.8088,155.734 463.3178,155.922 499.0118,155.922 C541.4698,155.922 548.6088,155.922 554.0568,151.226 L555.1838,151.226 C553.8688,154.231 550.1118,167.193 549.3608,171.327 L548.2328,171.327 C548.4208,170.576 548.6088,169.448 548.6088,168.509 C548.6088,162.686 543.1598,161.559 509.9078,161.559 L509.9078,272.963 C509.9078,287.992 512.3508,288.932 519.3018,290.059 L519.3018,290.998 Z" id="Fill-28"></path>
                    <path d="M556.5,259.4365 C556.313,261.1265 556.124,262.6295 556.124,264.1325 C556.124,279.5385 570.777,287.8045 585.619,287.8045 C598.582,287.8045 611.169,279.7255 611.169,262.4425 C611.169,224.8695 554.809,225.8085 554.809,184.8535 C554.809,164.5645 569.463,151.2255 589.564,151.2255 C600.461,151.2255 607.224,154.2315 614.551,154.2315 C615.678,154.2315 616.617,154.2315 617.744,154.0425 C617.369,157.9885 617.181,161.3705 617.181,166.4425 C617.181,169.2605 617.181,173.9575 617.369,176.7755 L616.241,176.7755 C613.424,162.1215 603.654,155.1695 589.94,155.1695 C578.104,155.1695 567.021,161.5585 567.021,176.3995 C567.021,212.2815 623.005,211.3425 623.005,254.3635 C623.005,277.8475 605.908,292.5005 583.929,292.5005 C571.342,292.5005 565.894,288.9315 556.876,288.9315 C555.748,288.9315 555.186,288.9315 554.058,289.1195 C554.246,288.1795 554.246,285.9255 554.246,284.2345 C554.246,279.9145 553.307,275.9685 553.307,271.2715 C553.307,267.8905 553.87,263.1935 555.561,259.4365 L556.5,259.4365 Z" id="Fill-30"></path>
                    <path d="M15.7227,344.125 L13.2267,322.323 L6.4407,338.47 C5.8947,339.796 5.5427,340.966 5.5427,341.902 C5.5427,342.838 5.8557,343.424 7.1427,343.618 L7.1427,343.813 C6.2847,343.774 4.8027,343.735 3.3597,343.735 C2.0337,343.735 1.5657,343.774 0.7457,343.813 L0.7457,343.618 C2.9307,343.072 3.4377,342.214 5.1927,338.041 L14.8657,314.952 L15.0607,314.952 L17.5567,338.158 L29.9977,314.952 L30.1927,314.952 L29.8417,340.693 C29.8027,343.033 30.0757,343.307 31.8297,343.618 L31.8297,343.813 C31.0117,343.774 29.7247,343.735 28.3987,343.735 C26.9547,343.735 25.2787,343.774 24.4197,343.813 L24.4197,343.618 C26.2537,343.346 26.7207,342.838 26.7987,341.824 C26.7987,341.59 26.8377,340.889 26.8377,340.226 L27.1897,323.143 L15.9177,344.125 L15.7227,344.125 Z" id="Fill-32"></path>
                    <path d="M37.7188,341.5898 C40.6828,341.5898 46.1818,332.9318 46.1818,328.0958 C46.1818,327.1598 45.1678,326.6918 44.1548,326.6918 C39.5908,326.6918 36.3148,334.8818 36.3148,339.3278 C36.3148,340.4198 36.5098,341.5898 37.7188,341.5898 M42.9058,343.0328 C42.9058,342.0198 43.5298,340.2648 45.1678,333.9068 C41.6978,340.8108 38.1478,344.1248 35.9628,344.1248 C34.0918,344.1248 33.3118,342.3698 33.3118,340.5368 C33.3118,333.2828 41.5408,325.0148 45.4808,325.0148 C46.2988,325.0148 47.0008,325.2488 47.7818,325.9888 L49.4578,325.0148 L49.6138,325.1318 C47.5468,334.9988 46.5728,338.8608 46.5728,340.2648 C46.5728,340.7718 46.6898,340.9658 46.9228,340.9658 C47.6638,340.9658 49.0298,339.3278 49.6138,338.1968 L49.8478,338.3928 C48.8728,340.4588 45.3638,344.1248 43.7248,344.1248 C43.2568,344.1248 42.9058,343.8528 42.9058,343.0328" id="Fill-34"></path>
                    <path d="M55.1514,342.5654 C55.9704,342.7984 56.9454,342.9554 57.7644,342.9554 C62.6784,342.9554 65.1354,335.6234 65.1354,331.2154 C65.1354,327.5494 63.5764,326.5364 61.4304,326.5364 C60.5334,326.5364 59.5194,326.8084 58.4664,327.2764 C57.4144,331.7224 55.9314,338.6264 55.1514,342.5654 M53.2794,352.2764 C53.2794,352.7454 53.4744,353.0564 54.0204,353.2524 L54.0204,353.4464 C53.3574,353.4084 52.3044,353.3694 51.7184,353.3694 C50.8614,353.3694 50.1204,353.3694 49.1444,353.4464 L49.1444,353.2524 C50.1984,352.8614 50.4704,352.1984 50.7834,350.8344 C51.6014,347.3624 54.4884,334.4534 55.5024,328.9934 C54.3714,329.8114 53.3184,330.7874 52.4994,331.7224 L52.2264,331.4894 C53.1234,330.2804 54.2934,329.1094 55.6584,328.0954 C55.7754,327.3544 55.8534,326.8474 55.8534,326.6134 C55.8534,325.7164 55.6194,325.4824 54.9564,325.4824 L54.9564,325.2884 C56.7504,325.2884 58.2324,325.0924 58.9734,324.5464 L59.1294,324.6644 L58.7004,326.2234 C60.2604,325.4824 61.7814,325.0144 63.1074,325.0144 C65.8384,325.0144 67.8264,326.6134 67.8264,330.3574 C67.8264,335.8184 63.3804,344.1254 55.1124,344.1254 L54.8004,344.1254 C54.7224,344.4374 54.6834,344.8274 54.6444,345.0614 C54.3324,346.7384 53.2794,351.1064 53.2794,352.2764" id="Fill-36"></path>
                    <path d="M72.8184,342.5654 C73.6364,342.7984 74.6114,342.9554 75.4304,342.9554 C80.3454,342.9554 82.8024,335.6234 82.8024,331.2154 C82.8024,327.5494 81.2424,326.5364 79.0974,326.5364 C78.2004,326.5364 77.1854,326.8084 76.1324,327.2764 C75.0804,331.7224 73.5974,338.6264 72.8184,342.5654 M62.4434,354.2654 C61.3124,354.2654 60.4164,353.9544 60.4164,352.9784 C60.4164,351.7694 61.5074,351.4194 62.8734,351.4194 C64.2764,351.4194 65.9924,351.7694 67.1234,351.9644 C69.0354,349.5074 69.1904,347.3234 70.1274,343.4614 C71.3364,338.3924 72.5454,332.3464 73.1694,328.9934 C72.0374,329.8114 70.9844,330.7874 70.1664,331.7224 L69.8924,331.4894 C70.7894,330.2804 71.9604,329.1094 73.3244,328.0954 C73.4414,327.3544 73.5194,326.8474 73.5194,326.6134 C73.5194,325.7164 73.2854,325.4824 72.6234,325.4824 L72.6234,325.2884 C74.4174,325.2884 75.8984,325.0924 76.6404,324.5464 L76.7964,324.6644 L76.3674,326.2234 C77.9264,325.4824 79.4484,325.0144 80.7734,325.0144 C83.5044,325.0144 85.4934,326.6134 85.4934,330.3574 C85.4934,335.8184 81.0474,344.1254 72.7794,344.1254 L72.4274,344.1254 C71.2574,348.4934 69.8924,350.6774 67.9424,352.1214 C69.3854,352.3154 71.2184,352.4714 74.2214,352.4714 C78.3554,352.4714 81.0074,352.0034 82.9194,348.4164 L83.1144,348.7664 C81.4764,353.0174 77.3024,353.6804 73.4414,353.6804 C70.4384,353.6804 68.9184,353.5244 66.6174,353.1344 C65.8364,353.5634 63.8474,354.2654 62.4434,354.2654" id="Fill-38"></path>
                    <path d="M92.5898,323.2988 C92.0448,323.2988 91.6148,322.9868 91.6148,322.2838 C91.6148,321.0748 92.3568,319.4378 93.7218,319.4378 C94.2678,319.4378 94.7358,319.7488 94.7358,320.4508 C94.7358,321.5438 93.8768,323.2988 92.5898,323.2988 L92.5898,323.2988 Z M89.9388,330.5528 C90.0158,330.1238 90.0938,329.7338 90.0938,329.4218 C90.0938,329.0698 90.0158,328.8758 89.7818,328.8758 C89.5098,328.8758 89.1968,329.0698 88.3008,329.6168 L88.1058,329.3828 C91.1478,327.4718 92.6288,326.1068 93.5658,325.0148 L93.7218,325.1318 C93.0588,327.9398 90.6408,338.6648 90.6408,340.4588 C90.6408,341.0828 90.7968,341.2388 91.0298,341.2388 C91.4588,341.2388 92.3178,340.5758 93.6828,338.1968 L93.9158,338.3928 C92.5898,340.8498 89.8608,344.1248 88.3398,344.1248 C87.8708,344.1248 87.4818,343.7748 87.4818,342.9548 C87.4818,341.9028 87.9878,339.8738 88.7678,336.1688 L89.9388,330.5528 Z" id="Fill-40"></path>
                    <path d="M112.5586,338.3926 C110.6866,341.7856 107.9176,344.1246 106.5136,344.1246 C106.0446,344.1246 105.6946,343.8526 105.6946,343.0336 C105.6946,341.9806 107.2926,336.6366 108.2296,332.2296 C108.5016,330.9046 108.7366,329.7726 108.7366,329.0706 C108.7366,328.2906 108.5406,327.9786 108.0346,327.9786 C107.0206,327.9786 105.5776,329.7336 103.8616,332.1136 C101.3266,335.6626 99.0256,338.9776 99.0256,342.4096 C99.0256,342.9946 99.2196,343.3846 99.7656,343.6186 L99.7656,343.8136 C99.1426,343.7746 98.5176,343.7356 97.0746,343.7356 C96.2556,343.7356 95.6706,343.7746 95.2426,343.8136 L95.2426,343.6186 C96.7626,342.8766 96.4516,341.7466 98.8696,330.5526 C98.9086,330.3966 99.0256,329.8896 99.0256,329.4996 C99.0256,329.1876 98.9476,328.9146 98.6346,328.9146 C98.3616,328.9146 98.1276,329.1096 97.2306,329.6566 L97.0366,329.4216 C99.9606,327.6276 101.5216,326.1846 102.4566,325.0926 L102.6526,325.2096 C101.5606,329.6176 100.2346,335.1166 99.6486,337.7686 C101.6776,333.9466 107.6446,325.2096 110.4526,325.2096 C111.0376,325.2096 111.7006,325.5606 111.7006,327.0036 C111.7006,327.7056 111.5836,328.7196 111.3106,330.0846 C110.7256,333.0486 109.4386,337.9626 109.4386,340.1866 C109.4386,340.7326 109.5936,340.9276 109.8676,340.9276 C110.2576,340.9276 111.3496,340.0306 112.3246,338.2366 L112.5586,338.3926 Z" id="Fill-42"></path>
                    <path d="M118.0176,335.4277 C118.0176,337.9627 118.9136,339.9517 121.2156,339.9517 C124.5316,339.9517 127.3386,334.1407 127.3386,329.9287 C127.3386,327.4717 126.4416,325.5607 124.2186,325.5607 C121.0206,325.5607 118.0176,330.3577 118.0176,335.4277 M117.0816,344.6717 C115.0536,344.6717 113.6106,345.9197 113.6106,348.2207 C113.6106,351.4577 116.8086,352.8227 119.9286,352.8227 C123.0486,352.8227 124.7646,351.1847 124.7646,348.9227 C124.7646,347.0897 123.0876,346.2317 121.2546,345.6467 C119.6956,345.1397 117.9786,344.6717 117.0816,344.6717 M127.8846,326.0287 C128.3926,325.6387 128.9376,325.1707 129.2106,324.5857 L129.2496,324.5857 C129.6796,325.2487 130.7716,326.2237 132.1366,326.2237 C132.6426,326.2237 133.1116,326.1067 133.6186,325.6387 L133.7356,325.6777 C132.9556,326.8477 131.7066,327.4717 130.4586,327.4717 C130.0306,327.4717 129.6406,327.4327 129.2496,327.3157 C129.9136,328.2907 130.2636,329.4997 130.2636,330.7867 C130.2636,335.1947 126.6366,340.4977 121.0986,340.4977 C120.6306,340.4977 120.1626,340.4587 119.7726,340.4197 C119.1876,340.8497 118.9136,341.1997 118.9136,341.4347 C118.9926,343.3067 127.2226,342.4487 127.2226,347.5187 C127.2226,351.1847 123.0486,353.4857 118.8746,353.4857 C113.6496,353.4857 110.8416,351.0677 110.8416,348.4927 C110.8416,345.4117 114.2736,344.2417 117.1606,344.1637 C116.9256,344.0467 116.7696,343.6567 116.7696,343.3067 C116.7696,342.1757 117.7836,341.1997 119.2266,340.3027 C116.4176,339.6017 115.1696,337.2997 115.1696,334.6097 C115.1696,330.2807 118.6026,325.0537 124.1796,325.0537 C125.7016,325.0537 126.9496,325.4047 127.8846,326.0287" id="Fill-44"></path>
                    <path d="M150.9336,338.3145 L162.0876,319.9445 C162.9456,318.5015 163.5316,317.5265 163.5316,316.8245 C163.5316,316.2785 163.2966,315.7325 162.0486,315.5765 L162.0876,315.3805 C162.9456,315.4195 164.0766,315.4595 165.5196,315.4595 C166.8456,315.4595 167.8596,315.4195 168.6396,315.3805 L168.6396,315.5765 C167.1976,315.8495 165.8716,316.0045 162.9066,320.9595 L148.9446,344.1255 L148.5546,344.1255 L147.0726,319.2815 C146.8766,315.9275 146.7596,315.8105 145.3556,315.5765 L145.3556,315.3805 C146.1746,315.4195 147.2676,315.4595 148.5936,315.4595 C150.0366,315.4595 151.5176,315.4195 152.3766,315.3805 L152.3766,315.5765 C151.0896,315.7325 150.2316,315.9275 150.1926,317.3705 C150.1536,317.7605 150.1536,318.3845 150.1536,318.9695 L150.9336,338.3145 Z" id="Fill-46"></path>
                    <path d="M168.0937,323.2988 C167.5467,323.2988 167.1177,322.9868 167.1177,322.2838 C167.1177,321.0748 167.8597,319.4378 169.2247,319.4378 C169.7707,319.4378 170.2387,319.7488 170.2387,320.4508 C170.2387,321.5438 169.3807,323.2988 168.0937,323.2988 L168.0937,323.2988 Z M165.4417,330.5528 C165.5197,330.1238 165.5977,329.7338 165.5977,329.4218 C165.5977,329.0698 165.5197,328.8758 165.2847,328.8758 C165.0117,328.8758 164.6997,329.0698 163.8027,329.6168 L163.6087,329.3828 C166.6507,327.4718 168.1327,326.1068 169.0687,325.0148 L169.2247,325.1318 C168.5617,327.9398 166.1427,338.6648 166.1427,340.4588 C166.1427,341.0828 166.2987,341.2388 166.5327,341.2388 C166.9627,341.2388 167.8207,340.5758 169.1857,338.1968 L169.4197,338.3928 C168.0937,340.8498 165.3637,344.1248 163.8417,344.1248 C163.3737,344.1248 162.9847,343.7748 162.9847,342.9548 C162.9847,341.9028 163.4907,339.8738 164.2717,336.1688 L165.4417,330.5528 Z" id="Fill-48"></path>
                    <path d="M170.1992,341.9805 C170.7062,341.1225 171.1742,339.8745 171.5252,338.1195 L171.6422,338.1195 C171.9932,340.7715 174.2172,342.7215 176.5172,342.7215 C177.9612,342.7215 178.9742,341.8245 178.9742,340.1085 C178.9742,336.6755 173.5132,334.7255 173.5132,331.2155 C173.5132,328.2915 176.3612,325.0145 179.8712,325.0145 C181.1192,325.0145 182.2502,325.5215 182.7192,326.0675 C181.8602,327.0425 181.5492,327.5885 181.0022,329.1875 L180.8862,329.1875 C180.6122,327.5885 179.0922,326.7695 177.6872,326.7695 C176.3612,326.7695 175.0742,327.5495 175.0742,329.0705 C175.0742,332.3465 180.9242,334.2965 180.9242,337.9235 C180.9242,340.4985 178.1942,344.1255 174.6452,344.1255 C173.0852,344.1255 171.8372,343.1115 170.1992,341.9805" id="Fill-50"></path>
                    <path d="M196.3682,331.4111 C194.3402,335.3891 188.5292,344.1251 185.5252,344.1251 C184.9412,344.1251 184.2772,343.7741 184.2772,342.3311 C184.2772,339.6401 186.6952,331.0991 186.6952,329.4221 C186.6952,329.0701 186.6182,328.8761 186.3062,328.8761 C186.0722,328.8761 185.7602,329.0321 184.9022,329.5781 L184.7072,329.3831 C187.6322,327.5891 189.2302,326.1061 190.1672,325.0151 L190.3232,325.1711 C189.5432,328.6811 187.2422,338.4701 187.2422,340.2651 C187.2422,341.0441 187.4372,341.3561 187.9432,341.3561 C188.9582,341.3561 190.6742,339.1721 192.3902,336.7931 C194.6132,333.6731 197.2652,329.8111 197.2652,326.6131 C197.2652,326.0281 197.1872,325.5991 196.5632,325.3651 L196.5632,325.1711 C197.1872,325.2491 197.5392,325.2881 198.9812,325.2881 C199.8012,325.2881 200.4242,325.2491 200.8532,325.1711 L200.8532,325.3651 C199.7622,325.9121 199.6832,325.9891 198.2012,333.8291 C197.7332,336.3641 197.1482,338.8601 197.1482,340.1861 C197.1482,340.5761 197.1872,340.9661 197.6162,340.9661 C198.3572,340.9661 199.2152,339.6011 200.0732,338.2361 L200.3072,338.4321 C198.9812,340.8491 196.2132,344.1251 194.4572,344.1251 C193.9892,344.1251 193.6392,343.8521 193.6392,343.0331 C193.6392,341.4741 194.6522,338.3141 196.3682,331.4111" id="Fill-52"></path>
                    <path d="M206.2354,341.5898 C209.1994,341.5898 214.6984,332.9318 214.6984,328.0958 C214.6984,327.1598 213.6844,326.6918 212.6704,326.6918 C208.1074,326.6918 204.8314,334.8818 204.8314,339.3278 C204.8314,340.4198 205.0254,341.5898 206.2354,341.5898 M211.4224,343.0328 C211.4224,342.0198 212.0474,340.2648 213.6844,333.9068 C210.2134,340.8108 206.6644,344.1248 204.4804,344.1248 C202.6074,344.1248 201.8284,342.3698 201.8284,340.5368 C201.8284,333.2828 210.0564,325.0148 213.9964,325.0148 C214.8154,325.0148 215.5174,325.2488 216.2974,325.9888 L217.9744,325.0148 L218.1314,325.1318 C216.0634,334.9988 215.0884,338.8608 215.0884,340.2648 C215.0884,340.7718 215.2054,340.9658 215.4394,340.9658 C216.1804,340.9658 217.5454,339.3278 218.1314,338.1968 L218.3654,338.3928 C217.3894,340.4588 213.8794,344.1248 212.2414,344.1248 C211.7734,344.1248 211.4224,343.8528 211.4224,343.0328" id="Fill-54"></path>
                    <path d="M229.0107,314.1719 C228.1137,318.3849 223.8237,339.1329 223.8237,340.4589 C223.8237,341.0829 223.9797,341.2779 224.2137,341.2779 C224.6037,341.2779 225.5007,340.5759 226.8647,338.1969 L227.0997,338.3929 C225.7737,340.8499 223.0427,344.1249 221.5227,344.1249 C221.0547,344.1249 220.6637,343.7749 220.6637,342.9549 C220.6637,341.9419 220.9377,340.3029 223.2387,330.3969 C224.0577,326.8479 224.7987,323.2989 225.4617,319.5159 C225.6567,318.3849 225.7737,317.7999 225.7737,317.2919 C225.7737,316.4349 225.2667,316.2389 224.6817,316.2389 L224.6817,316.0439 C225.8907,316.0439 228.1137,314.7959 228.8167,314.0559 L229.0107,314.1719 Z" id="Fill-56"></path>
                    <path d="M234.7041,323.2988 C234.1581,323.2988 233.7281,322.9868 233.7281,322.2838 C233.7281,321.0748 234.4711,319.4378 235.8351,319.4378 C236.3811,319.4378 236.8501,319.7488 236.8501,320.4508 C236.8501,321.5438 235.9911,323.2988 234.7041,323.2988 L234.7041,323.2988 Z M232.0531,330.5528 C232.1301,330.1238 232.2081,329.7338 232.2081,329.4218 C232.2081,329.0698 232.1301,328.8758 231.8961,328.8758 C231.6231,328.8758 231.3101,329.0698 230.4141,329.6168 L230.2191,329.3828 C233.2621,327.4718 234.7431,326.1068 235.6801,325.0148 L235.8351,325.1318 C235.1721,327.9398 232.7541,338.6648 232.7541,340.4588 C232.7541,341.0828 232.9101,341.2388 233.1441,341.2388 C233.5731,341.2388 234.4321,340.5758 235.7971,338.1968 L236.0301,338.3928 C234.7041,340.8498 231.9751,344.1248 230.4531,344.1248 C229.9841,344.1248 229.5951,343.7748 229.5951,342.9548 C229.5951,341.9028 230.1011,339.8738 230.8821,336.1688 L232.0531,330.5528 Z" id="Fill-58"></path>
                    <path d="M250.1484,328.2129 C249.5244,328.3299 248.9394,328.3689 248.3934,328.3689 C245.9354,328.3689 244.1814,327.4329 241.8024,327.4329 C240.2814,327.4329 239.1114,327.8219 238.7984,329.6559 L238.4864,329.6559 C238.4864,327.7449 240.7494,325.0149 242.9724,325.0149 C244.7264,325.0149 247.4964,325.9119 249.8364,325.9119 C251.3574,325.9119 252.4104,325.5999 253.4234,324.9369 L253.6194,325.2099 L238.3704,341.7849 C238.9164,341.4739 239.4224,341.3169 239.9684,341.3169 C244.6104,341.3169 249.5244,351.7699 253.6974,351.7699 C255.1794,351.7699 256.3104,350.6779 256.3104,349.0389 C256.3104,348.5709 256.2324,348.0249 255.9984,347.4009 L256.3104,347.4009 C256.5444,348.0649 256.6624,348.6099 256.6624,349.1559 C256.6624,351.5349 254.4384,352.7059 252.1754,352.7059 C245.8584,352.7059 241.5294,342.8379 238.3314,342.8379 C237.7074,342.8379 237.1614,343.2289 236.6154,344.0859 L236.4594,343.9699 C236.6154,343.3459 238.0194,341.4739 240.1254,339.2109 L250.1484,328.2129 Z" id="Fill-60"></path>
                    <path d="M255.2178,341.5898 C258.1818,341.5898 263.6808,332.9318 263.6808,328.0958 C263.6808,327.1598 262.6668,326.6918 261.6528,326.6918 C257.0898,326.6918 253.8138,334.8818 253.8138,339.3278 C253.8138,340.4198 254.0078,341.5898 255.2178,341.5898 M260.4048,343.0328 C260.4048,342.0198 261.0298,340.2648 262.6668,333.9068 C259.1958,340.8108 255.6468,344.1248 253.4628,344.1248 C251.5898,344.1248 250.8108,342.3698 250.8108,340.5368 C250.8108,333.2828 259.0388,325.0148 262.9788,325.0148 C263.7978,325.0148 264.4998,325.2488 265.2798,325.9888 L266.9568,325.0148 L267.1138,325.1318 C265.0458,334.9988 264.0708,338.8608 264.0708,340.2648 C264.0708,340.7718 264.1878,340.9658 264.4218,340.9658 C265.1628,340.9658 266.5278,339.3278 267.1138,338.1968 L267.3478,338.3928 C266.3718,340.4588 262.8618,344.1248 261.2238,344.1248 C260.7558,344.1248 260.4048,343.8528 260.4048,343.0328" id="Fill-62"></path>
                    <path d="M279.2812,325.3262 C279.0082,325.7172 278.8512,326.2232 278.7342,326.6522 L275.8092,326.5362 C274.5222,332.7372 273.1962,339.3672 273.1962,340.4592 C273.1962,341.0832 273.3522,341.2782 273.5862,341.2782 C273.9762,341.2782 274.6002,340.8892 276.2772,338.1972 L276.5112,338.3922 C274.5222,341.7072 272.1812,344.1252 270.8952,344.1252 C270.4272,344.1252 270.0372,343.7742 270.0372,342.9552 C270.0372,341.3172 271.9482,333.5952 273.4692,326.5362 C272.6892,326.5362 271.8702,326.5742 270.7392,326.6522 L270.6612,326.5742 C270.9332,326.1842 271.1292,325.6782 271.2462,325.2102 C271.9872,325.2882 272.8452,325.2882 273.7422,325.2882 C274.2892,322.5572 274.7562,319.9832 275.0292,317.9942 C275.2632,318.1112 275.6142,318.1502 275.8482,318.1502 C276.6292,318.1502 277.2912,317.8002 277.7602,317.1762 L277.8772,317.2532 L276.0822,325.2882 C276.9012,325.2882 277.6812,325.2882 279.2422,325.2102 L279.2812,325.3262 Z" id="Fill-64"></path>
                    <path d="M284.5059,323.2988 C283.9609,323.2988 283.5309,322.9868 283.5309,322.2838 C283.5309,321.0748 284.2729,319.4378 285.6379,319.4378 C286.1839,319.4378 286.6519,319.7488 286.6519,320.4508 C286.6519,321.5438 285.7929,323.2988 284.5059,323.2988 L284.5059,323.2988 Z M281.8549,330.5528 C281.9319,330.1238 282.0099,329.7338 282.0099,329.4218 C282.0099,329.0698 281.9319,328.8758 281.6979,328.8758 C281.4259,328.8758 281.1129,329.0698 280.2169,329.6168 L280.0219,329.3828 C283.0639,327.4718 284.5449,326.1068 285.4819,325.0148 L285.6379,325.1318 C284.9749,327.9398 282.5569,338.6648 282.5569,340.4588 C282.5569,341.0828 282.7129,341.2388 282.9459,341.2388 C283.3749,341.2388 284.2339,340.5758 285.5989,338.1968 L285.8319,338.3928 C284.5059,340.8498 281.7769,344.1248 280.2559,344.1248 C279.7869,344.1248 279.3979,343.7748 279.3979,342.9548 C279.3979,341.9028 279.9039,339.8738 280.6839,336.1688 L281.8549,330.5528 Z" id="Fill-66"></path>
                    <path d="M290.6289,337.2998 C290.6289,340.8498 292.4619,342.6438 294.6469,342.6438 C297.2599,342.6438 301.1979,339.2108 301.1979,331.9958 C301.1979,328.3688 299.4429,326.5358 297.3759,326.5358 C292.8129,326.5358 290.6289,333.4398 290.6289,337.2998 M299.8339,325.0538 C302.0959,325.0538 303.9289,326.6918 303.9289,330.5138 C303.9289,338.7038 296.6739,344.1248 292.4229,344.1248 C289.7329,344.1248 287.8589,342.4868 287.8589,338.6648 C287.8589,331.3328 294.5679,325.0538 299.8339,325.0538" id="Fill-68"></path>
                    <path d="M322.1025,338.3926 C320.2305,341.7856 317.4605,344.1246 316.0565,344.1246 C315.5895,344.1246 315.2385,343.8526 315.2385,343.0336 C315.2385,341.9806 316.8375,336.6366 317.7735,332.2296 C318.0465,330.9046 318.2805,329.7726 318.2805,329.0706 C318.2805,328.2906 318.0855,327.9786 317.5785,327.9786 C316.5645,327.9786 315.1215,329.7336 313.4055,332.1136 C310.8705,335.6626 308.5685,338.9776 308.5685,342.4096 C308.5685,342.9946 308.7635,343.3846 309.3105,343.6186 L309.3105,343.8136 C308.6855,343.7746 308.0625,343.7356 306.6195,343.7356 C305.7995,343.7356 305.2145,343.7746 304.7855,343.8136 L304.7855,343.6186 C306.3065,342.8766 305.9945,341.7466 308.4135,330.5526 C308.4525,330.3966 308.5685,329.8896 308.5685,329.4996 C308.5685,329.1876 308.4905,328.9146 308.1785,328.9146 C307.9065,328.9146 307.6715,329.1096 306.7755,329.6566 L306.5805,329.4216 C309.5045,327.6276 311.0645,326.1846 312.0005,325.0926 L312.1965,325.2096 C311.1035,329.6176 309.7775,335.1166 309.1935,337.7686 C311.2205,333.9466 317.1885,325.2096 319.9965,325.2096 C320.5815,325.2096 321.2445,325.5606 321.2445,327.0036 C321.2445,327.7056 321.1265,328.7196 320.8545,330.0846 C320.2695,333.0486 318.9825,337.9626 318.9825,340.1866 C318.9825,340.7326 319.1385,340.9276 319.4115,340.9276 C319.8005,340.9276 320.8935,340.0306 321.8685,338.2366 L322.1025,338.3926 Z" id="Fill-70"></path>
                    <path d="M322.8437,341.9805 C323.3497,341.1225 323.8187,339.8745 324.1687,338.1195 L324.2857,338.1195 C324.6367,340.7715 326.8607,342.7215 329.1607,342.7215 C330.6047,342.7215 331.6187,341.8245 331.6187,340.1085 C331.6187,336.6755 326.1577,334.7255 326.1577,331.2155 C326.1577,328.2915 329.0057,325.0145 332.5157,325.0145 C333.7637,325.0145 334.8947,325.5215 335.3637,326.0675 C334.5037,327.0425 334.1927,327.5885 333.6467,329.1875 L333.5297,329.1875 C333.2557,327.5885 331.7357,326.7695 330.3317,326.7695 C329.0057,326.7695 327.7187,327.5495 327.7187,329.0705 C327.7187,332.3465 333.5687,334.2965 333.5687,337.9235 C333.5687,340.4985 330.8377,344.1255 327.2887,344.1255 C325.7297,344.1255 324.4817,343.1115 322.8437,341.9805" id="Fill-72"></path>
                </g>
            </g>
        </g>
    </g>
</svg>